<?xml version="1.0" standalone="no"?>
<!DOCTYPE svg PUBLIC "-//W3C//DTD SVG 20010904//EN"
 "http://www.w3.org/TR/2001/REC-SVG-20010904/DTD/svg10.dtd">
<svg version="1.0" xmlns="http://www.w3.org/2000/svg"
 width="260.000000pt" height="260.000000pt" viewBox="0 0 260.000000 260.000000"
 preserveAspectRatio="xMidYMid meet">
<metadata>
Created by potrace 1.11, written by Peter Selinger 2001-2013
</metadata>
<g transform="translate(0.000000,260.000000) scale(0.100000,-0.100000)"
fill="#000000" stroke="none">
<path d="M0 1300 l0 -1300 1300 0 1300 0 0 1300 0 1300 -1300 0 -1300 0 0
-1300z m2230 170 l0 -930 -930 0 -930 0 0 930 0 930 930 0 930 0 0 -930z
m-1206 -1044 c46 -19 54 -35 27 -57 -20 -17 -25 -17 -45 -3 -28 17 -56 9 -56
-17 0 -13 19 -28 60 -49 32 -16 64 -39 70 -49 19 -36 12 -90 -15 -116 -43 -44
-166 -28 -194 24 -8 15 -5 20 15 30 20 9 30 8 47 -4 40 -28 103 -13 90 22 -3
8 -31 27 -63 43 -41 21 -61 38 -70 60 -19 46 -3 91 40 112 42 22 51 22 94 4z
m-584 -126 l0 -129 73 -3 c69 -3 72 -4 72 -28 0 -25 0 -25 -107 -28 l-108 -3
0 161 0 160 35 0 35 0 0 -130z m320 -30 l0 -160 -30 0 -30 0 0 160 0 160 30 0
30 0 0 -160z m510 80 l0 -80 71 0 71 0 -4 80 -3 80 33 0 32 0 0 -161 0 -160
-32 3 c-30 3 -32 5 -32 48 l-1 45 -67 3 -68 3 0 -51 0 -50 -35 0 -35 0 0 160
0 160 35 0 35 0 0 -80z m527 -80 l71 -160 -34 0 c-23 0 -37 6 -44 20 -16 29
-124 29 -142 0 -12 -19 -68 -29 -68 -12 0 13 132 312 139 312 3 0 38 -72 78
-160z m281 71 l92 -89 0 89 0 89 30 0 30 0 0 -162 0 -162 -32 29 c-18 16 -63
59 -100 95 l-68 64 0 -92 0 -92 -30 0 -30 0 0 160 c0 88 3 160 8 160 4 -1 49
-40 100 -89z"/>
<path d="M1317 1243 c-8 -14 -277 -632 -277 -638 0 -3 28 -5 63 -5 63 0 63 0
76 35 l12 35 134 0 134 0 12 -35 13 -35 68 0 c37 0 68 3 68 8 0 11 -280 626
-289 635 -5 5 -11 5 -14 0z m54 -367 c16 -37 29 -74 29 -82 0 -11 -18 -14 -80
-14 -44 0 -80 2 -80 5 0 2 11 28 23 57 13 30 32 78 42 108 l18 55 10 -30 c5
-16 22 -61 38 -99z"/>
<path d="M1750 925 l0 -325 215 0 216 0 -3 58 -3 57 -147 3 -148 3 0 264 0
265 -65 0 -65 0 0 -325z"/>
<path d="M1701 262 c-8 -20 -16 -43 -18 -49 -4 -9 7 -13 35 -13 l40 0 -17 45
c-23 59 -25 60 -40 17z"/>
</g>
</svg>
